# xmcd
#
# Track frame offsets:
#	150
#	14812
#	32992
#	48289
#	61411
#	82785
#	98387
#	112488
#	124732
#	140701
#	152344
#	165570
#	181648
#	202370
#	220086
#
# Disc length: 3114 seconds
#
# Revision: 1
# Processed by: cddbd v1.5.1PL0 Copyright (c) Steve Scherf et al.
# Submitted via: audiograbber 1.83.01
#
DISCID=ce0c280f
DTITLE=Various Artist - Drews famous 30 country songs V2
DYEAR=1900
DGENRE=
TTITLE0=Thank God I'm a country boy
TTITLE1=Mountain Music
TTITLE2=My Maria
TTITLE3=All my rowdy friends are commin over tonight
TTITLE4=Fast as you
TTITLE5=Two pina coladas
TTITLE6=The way you love me
TTITLE7=Your cheatin' heart
TTITLE8=To all the girls I loved before
TTITLE9=Don't it make my brown eyes blue
TTITLE10=Behind closed doors
TTITLE11=Always on my mind
TTITLE12=How do I live
TTITLE13=You and I
TTITLE14=Here you come again
EXTD=
EXTT0=
EXTT1=
EXTT2=
EXTT3=
EXTT4=
EXTT5=
EXTT6=
EXTT7=
EXTT8=
EXTT9=
EXTT10=
EXTT11=
EXTT12=
EXTT13=
EXTT14=
PLAYORDER=
